<svg version="1.1" viewBox="0 0 296.3 279.7" xmlns="http://www.w3.org/2000/svg">
    <path d="m103.27 246.61c-3.5815-1.4659-5.5186-4.2148-12.991-18.435-21.183-40.314-36.62-61.037-45.466-61.037-9.5259 0-15.573-12.995-9.5872-20.605 13.806-17.552 38.198-2.3571 66.858 41.649 8.713 13.378 6.6287 13.931 18.87-5.0014 33.566-51.91 78.373-103.03 125.63-143.32 11.184-9.5353 12.446-10.121 15.41-7.1572 2.9285 2.9285 2.6985 3.2759-13.11 19.811-46.28 48.407-82.072 99.909-113.24 162.94-16.337 33.04-19.747 36.32-32.378 31.15z"/>
</svg>
