<svg version="1.1" viewBox="0 0 500 500" xmlns="http://www.w3.org/2000/svg">
    <path d="m238.32 486.08c-4.3696-0.97153-10.87-3.2293-14.445-5.0172-8.5517-4.2768-198.9-195.42-205.09-205.95-8.6545-14.717-8.9533-33.991-0.78516-50.646 5.2095-10.622 199.01-203.84 209.49-208.86 6.197-2.9687 9.3758-3.4615 22.39-3.4713 13.598-0.01012 15.989 0.39434 23.112 3.9109 6.5794 3.2482 25.096 21.121 107.75 104 109.43 109.73 105.17 104.78 106.99 124.32 1.1011 11.792-2.3879 25.525-8.8879 34.984-2.7297 3.9723-48.05 50.221-100.71 102.77-102.23 102.02-101.21 101.12-118.82 104.38-10.074 1.8624-10.71 1.8492-20.983-0.43485zm30.334-13.793c9.2984-4.6605 199.09-194.22 203.84-203.58 2.4275-4.7927 3.5367-9.817 3.9256-17.782 1.0139-20.765 5.867-14.949-104.18-124.84-77.551-77.444-98.533-97.632-104.3-100.36-9.7272-4.5982-25.874-4.6384-35.416-0.08811-4.8509 2.3135-31.965 28.601-105.64 102.42-93.921 94.103-99.247 99.714-101.63 107.08-3.277 10.134-2.377 24.419 2.1036 33.391 2.3024 4.6102 31.03 34.345 98.803 102.27 52.556 52.671 97.755 97.141 100.44 98.822 8.6872 5.4348 14.835 6.9926 25.449 6.4486 6.7694-0.34693 12.26-1.5951 16.612-3.7762zm-30.334-13.856c-6.5349-2.7131-194.58-191.5-197.38-198.16-2.335-5.5474-2.5463-15.974-0.43816-21.62 2.2696-6.0783 191.37-195.11 198.54-198.47 7.0606-3.3074 13.537-3.481 20.63-0.55311 3.7446 1.5457 34.371 31.174 101.16 97.864 52.685 52.606 96.777 97.507 97.984 99.78 3.5767 6.7386 2.9509 18.483-1.3723 25.752-5.612 9.4353-189.7 192.65-196.33 195.4-6.6754 2.7656-16.154 2.771-22.797 0.013zm41.89-94.568v-15.889h5.7779c3.852 0 6.7409-0.96299 8.6669-2.889 2.7375-2.7375 2.889-4.815 2.889-39.62 0-41.726 0.12047-41.271-10.937-41.271h-6.397v-39.175l-10.834 0.89663-0.40305 19.139-0.40304 19.139h-6.1694c-3.3931 0-6.9494 0.78001-7.9027 1.7334-1.2618 1.2618-1.7334 12.251-1.7334 40.395 0 43.332-0.43309 41.652 10.739 41.652h5.1507v31.779h11.556zm-66.446-10.65c0-4.8043 0.10223-4.8818 7.3764-5.5807 4.057-0.38982 7.9472-1.6101 8.6448-2.7116s1.2784-30.037 1.2905-64.3c0.0173-48.611-0.38079-62.631-1.8118-63.819-1.0087-0.83712-4.7463-1.7292-8.3058-1.9825l-6.4718-0.46044-0.39522-24.917-0.39525-24.917h-9.975l-0.79046 49.835-6.4718 0.46044c-3.5595 0.25324-7.2971 1.1454-8.3058 1.9825-1.431 1.1877-1.8291 15.208-1.8118 63.819 0.0116 34.263 0.5929 63.198 1.2905 64.3 0.69763 1.1016 4.5878 2.3218 8.6448 2.7116 7.2741 0.69895 7.3764 0.77636 7.3764 5.5807 0 4.6049 0.27707 4.8719 5.0557 4.8719s5.0557-0.26699 5.0557-4.8719zm-65.325-39.546 0.39874-22.028h7.0302c5.0782 0 7.2737-0.63445 7.907-2.2849 0.48225-1.2567 0.87679-17.702 0.87679-36.545 0-24.721-0.48265-34.743-1.7334-35.994-0.95336-0.95336-4.5285-1.7334-7.9447-1.7334h-6.2113v-21.667h-11.556v21.667h-7.1716c-5.612 0-7.4968 0.60763-8.6669 2.794-2.2736 4.2483-1.995 68.221 0.3103 71.253 1.0901 1.4339 4.3814 2.545 8.3058 2.8039l6.5002 0.42889 0.39919 22.113 0.39921 22.113 10.757-0.8921zm198.22-16.175v-33.148l15.167-0.87322v-102.56l-15.167-0.87322v-5.7024c0-5.6899-0.013-5.7024-5.778-5.7024-5.7652 0-5.7779 0.013-5.7779 5.7024v5.7024l-15.167 0.87322v102.56l15.167 0.87322v66.295h11.556z" fill="#00aec7" stroke-width="1.4445"/>
</svg>
